<?xml version="1.0" encoding="UTF-8" standalone="no"?>
<!DOCTYPE svg PUBLIC "-//W3C//DTD SVG 1.1//EN"
 "http://www.w3.org/Graphics/SVG/1.1/DTD/svg11.dtd">
<!-- Generated by graphviz version 14.1.3 (0)
 -->
<!-- Title: YAMA Pages: 1 -->
<svg width="733pt" height="358pt"
 viewBox="0.00 0.00 733.00 358.00" xmlns="http://www.w3.org/2000/svg" xmlns:xlink="http://www.w3.org/1999/xlink">
<g id="graph0" class="graph" transform="scale(1 1) rotate(0) translate(43.2 315.2)">
<title>YAMA</title>
<polygon fill="#ffffff" stroke="none" points="-43.2,43.2 -43.2,-315.2 689.99,-315.2 689.99,43.2 -43.2,43.2"/>
<!-- character -->
<g id="node1" class="node">
<title>character</title>
<polygon fill="#ffffff" stroke="none" points="8,-4 8,-268 214.56,-268 214.56,-4 8,-4"/>
<polygon fill="#ffce9f" stroke="none" points="10,-226 10,-266 212.56,-266 212.56,-226 10,-226"/>
<text xml:space="preserve" text-anchor="start" x="78.6" y="-246.4" font-family="Helvetica,sans-Serif" font-weight="bold" font-size="14.00">Character</text>
<text xml:space="preserve" text-anchor="start" x="85.71" y="-236" font-family="Helvetica,sans-Serif" font-style="italic" font-size="10.00" fill="#666666">foaf:Person</text>
<polygon fill="#ffffff" stroke="none" points="10,-204 10,-226 135.03,-226 135.03,-204 10,-204"/>
<text xml:space="preserve" text-anchor="start" x="15" y="-213" font-family="Helvetica,sans-Serif" font-weight="bold" font-size="10.00" fill="#333333">foaf:name</text>
<polygon fill="#ffffff" stroke="none" points="135.03,-204 135.03,-226 183.55,-226 183.55,-204 135.03,-204"/>
<text xml:space="preserve" text-anchor="start" x="140.03" y="-211.4" font-family="Helvetica,sans-Serif" font-size="9.00" fill="#666666">xsd:string</text>
<polygon fill="#ffffff" stroke="none" points="183.55,-204 183.55,-226 208.56,-226 208.56,-204 183.55,-204"/>
<text xml:space="preserve" text-anchor="start" x="198.55" y="-211.4" font-family="Helvetica,sans-Serif" font-size="9.00" fill="#888888">1</text>
<polygon fill="#ffffff" stroke="none" points="208.56,-204 208.56,-226 212.56,-226 212.56,-204 208.56,-204"/>
<polygon fill="#f5f5f5" stroke="none" points="10,-182 10,-204 135.03,-204 135.03,-182 10,-182"/>
<text xml:space="preserve" text-anchor="start" x="15" y="-191" font-family="Helvetica,sans-Serif" font-weight="bold" font-size="10.00" fill="#333333">foaf:familyName</text>
<polygon fill="#f5f5f5" stroke="none" points="135.03,-182 135.03,-204 183.55,-204 183.55,-182 135.03,-182"/>
<text xml:space="preserve" text-anchor="start" x="140.03" y="-189.4" font-family="Helvetica,sans-Serif" font-size="9.00" fill="#666666">xsd:string</text>
<polygon fill="#f5f5f5" stroke="none" points="183.55,-182 183.55,-204 208.56,-204 208.56,-182 183.55,-182"/>
<text xml:space="preserve" text-anchor="start" x="198.55" y="-189.4" font-family="Helvetica,sans-Serif" font-size="9.00" fill="#888888">1</text>
<polygon fill="#f5f5f5" stroke="none" points="208.56,-182 208.56,-204 212.56,-204 212.56,-182 208.56,-182"/>
<polygon fill="#ffffff" stroke="none" points="10,-160 10,-182 135.03,-182 135.03,-160 10,-160"/>
<text xml:space="preserve" text-anchor="start" x="15" y="-169" font-family="Helvetica,sans-Serif" font-weight="bold" font-size="10.00" fill="#333333">foaf:firstName</text>
<polygon fill="#ffffff" stroke="none" points="135.03,-160 135.03,-182 183.55,-182 183.55,-160 135.03,-160"/>
<text xml:space="preserve" text-anchor="start" x="140.03" y="-167.4" font-family="Helvetica,sans-Serif" font-size="9.00" fill="#666666">xsd:string</text>
<polygon fill="#ffffff" stroke="none" points="183.55,-160 183.55,-182 208.56,-182 208.56,-160 183.55,-160"/>
<text xml:space="preserve" text-anchor="start" x="198.55" y="-167.4" font-family="Helvetica,sans-Serif" font-size="9.00" fill="#888888">1</text>
<polygon fill="#ffffff" stroke="none" points="208.56,-160 208.56,-182 212.56,-182 212.56,-160 208.56,-160"/>
<polygon fill="#f5f5f5" stroke="none" points="10,-138 10,-160 135.03,-160 135.03,-138 10,-138"/>
<text xml:space="preserve" text-anchor="start" x="15" y="-147" font-family="Helvetica,sans-Serif" font-weight="bold" font-size="10.00" fill="#333333">schema:additionalName</text>
<polygon fill="#f5f5f5" stroke="none" points="135.03,-138 135.03,-160 183.55,-160 183.55,-138 135.03,-138"/>
<text xml:space="preserve" text-anchor="start" x="140.03" y="-145.4" font-family="Helvetica,sans-Serif" font-size="9.00" fill="#666666">xsd:string</text>
<polygon fill="#f5f5f5" stroke="none" points="183.55,-138 183.55,-160 208.56,-160 208.56,-138 183.55,-138"/>
<text xml:space="preserve" text-anchor="start" x="188.55" y="-145.4" font-family="Helvetica,sans-Serif" font-size="9.00" fill="#888888">0..1</text>
<polygon fill="#f5f5f5" stroke="none" points="208.56,-138 208.56,-160 212.56,-160 212.56,-138 208.56,-138"/>
<polygon fill="#ffffff" stroke="none" points="10,-116 10,-138 135.03,-138 135.03,-116 10,-116"/>
<text xml:space="preserve" text-anchor="start" x="15" y="-125" font-family="Helvetica,sans-Serif" font-weight="bold" font-size="10.00" fill="#333333">schema:jobTitle</text>
<polygon fill="#ffffff" stroke="none" points="135.03,-116 135.03,-138 183.55,-138 183.55,-116 135.03,-116"/>
<text xml:space="preserve" text-anchor="start" x="140.03" y="-123.4" font-family="Helvetica,sans-Serif" font-size="9.00" fill="#666666">xsd:string</text>
<polygon fill="#ffffff" stroke="none" points="183.55,-116 183.55,-138 208.56,-138 208.56,-116 183.55,-116"/>
<text xml:space="preserve" text-anchor="start" x="188.55" y="-123.4" font-family="Helvetica,sans-Serif" font-size="9.00" fill="#888888">0..1</text>
<polygon fill="#ffffff" stroke="none" points="208.56,-116 208.56,-138 212.56,-138 212.56,-116 208.56,-116"/>
<polygon fill="#f5f5f5" stroke="none" points="10,-94 10,-116 135.03,-116 135.03,-94 10,-94"/>
<text xml:space="preserve" text-anchor="start" x="15" y="-103" font-family="Helvetica,sans-Serif" font-weight="bold" font-size="10.00" fill="#333333">schema:parent</text>
<polygon fill="#f5f5f5" stroke="none" points="135.03,-94 135.03,-116 183.55,-116 183.55,-94 135.03,-94"/>
<text xml:space="preserve" text-anchor="start" x="140.03" y="-101.4" font-family="Helvetica,sans-Serif" font-size="9.00" fill="#666666">URI</text>
<polygon fill="#f5f5f5" stroke="none" points="183.55,-94 183.55,-116 208.56,-116 208.56,-94 183.55,-94"/>
<text xml:space="preserve" text-anchor="start" x="190.05" y="-101.4" font-family="Helvetica,sans-Serif" font-size="9.00" fill="#888888">0..*</text>
<polygon fill="#f5f5f5" stroke="none" points="208.56,-94 208.56,-116 212.56,-116 212.56,-94 208.56,-94"/>
<polygon fill="#ffffff" stroke="none" points="10,-72 10,-94 135.03,-94 135.03,-72 10,-72"/>
<text xml:space="preserve" text-anchor="start" x="15" y="-81" font-family="Helvetica,sans-Serif" font-weight="bold" font-size="10.00" fill="#333333">schema:children</text>
<polygon fill="#ffffff" stroke="none" points="135.03,-72 135.03,-94 183.55,-94 183.55,-72 135.03,-72"/>
<text xml:space="preserve" text-anchor="start" x="140.03" y="-79.4" font-family="Helvetica,sans-Serif" font-size="9.00" fill="#666666">URI</text>
<polygon fill="#ffffff" stroke="none" points="183.55,-72 183.55,-94 208.56,-94 208.56,-72 183.55,-72"/>
<text xml:space="preserve" text-anchor="start" x="190.05" y="-79.4" font-family="Helvetica,sans-Serif" font-size="9.00" fill="#888888">0..*</text>
<polygon fill="#ffffff" stroke="none" points="208.56,-72 208.56,-94 212.56,-94 212.56,-72 208.56,-72"/>
<polygon fill="#f5f5f5" stroke="none" points="10,-50 10,-72 135.03,-72 135.03,-50 10,-50"/>
<text xml:space="preserve" text-anchor="start" x="15" y="-59" font-family="Helvetica,sans-Serif" font-weight="bold" font-size="10.00" fill="#333333">foaf:knows</text>
<polygon fill="#f5f5f5" stroke="none" points="135.03,-50 135.03,-72 183.55,-72 183.55,-50 135.03,-50"/>
<text xml:space="preserve" text-anchor="start" x="140.03" y="-57.4" font-family="Helvetica,sans-Serif" font-size="9.00" fill="#666666">URI</text>
<polygon fill="#f5f5f5" stroke="none" points="183.55,-50 183.55,-72 208.56,-72 208.56,-50 183.55,-50"/>
<text xml:space="preserve" text-anchor="start" x="190.05" y="-57.4" font-family="Helvetica,sans-Serif" font-size="9.00" fill="#888888">0..*</text>
<polygon fill="#f5f5f5" stroke="none" points="208.56,-50 208.56,-72 212.56,-72 212.56,-50 208.56,-50"/>
<polygon fill="#ffffff" stroke="none" points="10,-28 10,-50 135.03,-50 135.03,-28 10,-28"/>
<text xml:space="preserve" text-anchor="start" x="15" y="-37" font-family="Helvetica,sans-Serif" font-weight="bold" font-size="10.00" fill="#333333">rdfs:seeAlso</text>
<polygon fill="#ffffff" stroke="none" points="135.03,-28 135.03,-50 183.55,-50 183.55,-28 135.03,-28"/>
<text xml:space="preserve" text-anchor="start" x="140.03" y="-35.4" font-family="Helvetica,sans-Serif" font-size="9.00" fill="#666666">URI</text>
<polygon fill="#ffffff" stroke="none" points="183.55,-28 183.55,-50 208.56,-50 208.56,-28 183.55,-28"/>
<text xml:space="preserve" text-anchor="start" x="190.05" y="-35.4" font-family="Helvetica,sans-Serif" font-size="9.00" fill="#888888">0..*</text>
<polygon fill="#ffffff" stroke="none" points="208.56,-28 208.56,-50 212.56,-50 212.56,-28 208.56,-28"/>
<polygon fill="#f5f5f5" stroke="none" points="10,-6 10,-28 135.03,-28 135.03,-6 10,-6"/>
<text xml:space="preserve" text-anchor="start" x="15" y="-15" font-family="Helvetica,sans-Serif" font-weight="bold" font-size="10.00" fill="#333333">schema:byArtist</text>
<polygon fill="#f5f5f5" stroke="none" points="135.03,-6 135.03,-28 183.55,-28 183.55,-6 135.03,-6"/>
<text xml:space="preserve" text-anchor="start" x="140.03" y="-13.4" font-family="Helvetica,sans-Serif" font-size="9.00" fill="#666666">URI</text>
<polygon fill="#f5f5f5" stroke="none" points="183.55,-6 183.55,-28 208.56,-28 208.56,-6 183.55,-6"/>
<text xml:space="preserve" text-anchor="start" x="190.05" y="-13.4" font-family="Helvetica,sans-Serif" font-size="9.00" fill="#888888">0..*</text>
<polygon fill="#f5f5f5" stroke="none" points="208.56,-6 208.56,-28 212.56,-28 212.56,-6 208.56,-6"/>
<polygon fill="#666666" stroke="#666666" points="8,-226 8,-226 214.56,-226 214.56,-226 8,-226"/>
<polygon fill="none" stroke="#666666" stroke-width="2" points="9,-5 9,-267 213.56,-267 213.56,-5 9,-5"/>
</g>
<!-- address -->
<g id="node2" class="node">
<title>address</title>
<polygon fill="#ffffff" stroke="none" points="266.67,-62.6 266.67,-209.4 439.89,-209.4 439.89,-62.6 266.67,-62.6"/>
<polygon fill="#b8d4e3" stroke="none" points="268.67,-174.6 268.67,-207.4 437.89,-207.4 437.89,-174.6 268.67,-174.6"/>
<text xml:space="preserve" text-anchor="start" x="326.43" y="-187.8" font-family="Helvetica,sans-Serif" font-weight="bold" font-size="14.00">address</text>
<polygon fill="#ffffff" stroke="none" points="268.67,-152.6 268.67,-174.6 395.38,-174.6 395.38,-152.6 268.67,-152.6"/>
<text xml:space="preserve" text-anchor="start" x="273.67" y="-161.6" font-family="Helvetica,sans-Serif" font-weight="bold" font-size="10.00" fill="#333333">schema:streetAddress</text>
<polygon fill="#ffffff" stroke="none" points="395.38,-152.6 395.38,-174.6 410.39,-174.6 410.39,-152.6 395.38,-152.6"/>
<text xml:space="preserve" text-anchor="start" x="400.38" y="-160" font-family="Helvetica,sans-Serif" font-size="9.00" fill="#666666"> </text>
<polygon fill="#ffffff" stroke="none" points="410.39,-152.6 410.39,-174.6 433.89,-174.6 433.89,-152.6 410.39,-152.6"/>
<text xml:space="preserve" text-anchor="start" x="415.39" y="-160" font-family="Helvetica,sans-Serif" font-size="9.00" fill="#888888">0..*</text>
<polygon fill="#ffffff" stroke="none" points="433.89,-152.6 433.89,-174.6 437.89,-174.6 437.89,-152.6 433.89,-152.6"/>
<polygon fill="#f5f5f5" stroke="none" points="268.67,-130.6 268.67,-152.6 395.38,-152.6 395.38,-130.6 268.67,-130.6"/>
<text xml:space="preserve" text-anchor="start" x="273.67" y="-139.6" font-family="Helvetica,sans-Serif" font-weight="bold" font-size="10.00" fill="#333333">schema:addressLocality</text>
<polygon fill="#f5f5f5" stroke="none" points="395.38,-130.6 395.38,-152.6 410.39,-152.6 410.39,-130.6 395.38,-130.6"/>
<text xml:space="preserve" text-anchor="start" x="400.38" y="-138" font-family="Helvetica,sans-Serif" font-size="9.00" fill="#666666"> </text>
<polygon fill="#f5f5f5" stroke="none" points="410.39,-130.6 410.39,-152.6 433.89,-152.6 433.89,-130.6 410.39,-130.6"/>
<text xml:space="preserve" text-anchor="start" x="415.39" y="-138" font-family="Helvetica,sans-Serif" font-size="9.00" fill="#888888">0..*</text>
<polygon fill="#f5f5f5" stroke="none" points="433.89,-130.6 433.89,-152.6 437.89,-152.6 437.89,-130.6 433.89,-130.6"/>
<polygon fill="#ffffff" stroke="none" points="268.67,-108.6 268.67,-130.6 395.38,-130.6 395.38,-108.6 268.67,-108.6"/>
<text xml:space="preserve" text-anchor="start" x="273.67" y="-117.6" font-family="Helvetica,sans-Serif" font-weight="bold" font-size="10.00" fill="#333333">schema:addressRegion</text>
<polygon fill="#ffffff" stroke="none" points="395.38,-108.6 395.38,-130.6 410.39,-130.6 410.39,-108.6 395.38,-108.6"/>
<text xml:space="preserve" text-anchor="start" x="400.38" y="-116" font-family="Helvetica,sans-Serif" font-size="9.00" fill="#666666"> </text>
<polygon fill="#ffffff" stroke="none" points="410.39,-108.6 410.39,-130.6 433.89,-130.6 433.89,-108.6 410.39,-108.6"/>
<text xml:space="preserve" text-anchor="start" x="415.39" y="-116" font-family="Helvetica,sans-Serif" font-size="9.00" fill="#888888">0..*</text>
<polygon fill="#ffffff" stroke="none" points="433.89,-108.6 433.89,-130.6 437.89,-130.6 437.89,-108.6 433.89,-108.6"/>
<polygon fill="#f5f5f5" stroke="none" points="268.67,-86.6 268.67,-108.6 395.38,-108.6 395.38,-86.6 268.67,-86.6"/>
<text xml:space="preserve" text-anchor="start" x="273.67" y="-95.6" font-family="Helvetica,sans-Serif" font-weight="bold" font-size="10.00" fill="#333333">schema:addressRegion</text>
<polygon fill="#f5f5f5" stroke="none" points="395.38,-86.6 395.38,-108.6 410.39,-108.6 410.39,-86.6 395.38,-86.6"/>
<text xml:space="preserve" text-anchor="start" x="400.38" y="-94" font-family="Helvetica,sans-Serif" font-size="9.00" fill="#666666"> </text>
<polygon fill="#f5f5f5" stroke="none" points="410.39,-86.6 410.39,-108.6 433.89,-108.6 433.89,-86.6 410.39,-86.6"/>
<text xml:space="preserve" text-anchor="start" x="415.39" y="-94" font-family="Helvetica,sans-Serif" font-size="9.00" fill="#888888">0..*</text>
<polygon fill="#f5f5f5" stroke="none" points="433.89,-86.6 433.89,-108.6 437.89,-108.6 437.89,-86.6 433.89,-86.6"/>
<polygon fill="#ffffff" stroke="none" points="268.67,-64.6 268.67,-86.6 395.38,-86.6 395.38,-64.6 268.67,-64.6"/>
<text xml:space="preserve" text-anchor="start" x="273.67" y="-73.6" font-family="Helvetica,sans-Serif" font-weight="bold" font-size="10.00" fill="#333333">schema:postalCode</text>
<polygon fill="#ffffff" stroke="none" points="395.38,-64.6 395.38,-86.6 410.39,-86.6 410.39,-64.6 395.38,-64.6"/>
<text xml:space="preserve" text-anchor="start" x="400.38" y="-72" font-family="Helvetica,sans-Serif" font-size="9.00" fill="#666666"> </text>
<polygon fill="#ffffff" stroke="none" points="410.39,-64.6 410.39,-86.6 433.89,-86.6 433.89,-64.6 410.39,-64.6"/>
<text xml:space="preserve" text-anchor="start" x="415.39" y="-72" font-family="Helvetica,sans-Serif" font-size="9.00" fill="#888888">0..*</text>
<polygon fill="#ffffff" stroke="none" points="433.89,-64.6 433.89,-86.6 437.89,-86.6 437.89,-64.6 433.89,-64.6"/>
<polygon fill="#666666" stroke="#666666" points="266.67,-174.6 266.67,-174.6 439.89,-174.6 439.89,-174.6 266.67,-174.6"/>
<polygon fill="none" stroke="#666666" stroke-width="2" points="267.67,-63.6 267.67,-208.4 438.89,-208.4 438.89,-63.6 267.67,-63.6"/>
</g>
<!-- artist -->
<g id="node3" class="node">
<title>artist</title>
<polygon fill="#ffffff" stroke="none" points="491.77,-92 491.77,-180 638.79,-180 638.79,-92 491.77,-92"/>
<polygon fill="#c8e6c9" stroke="none" points="493.77,-138 493.77,-178 636.79,-178 636.79,-138 493.77,-138"/>
<text xml:space="preserve" text-anchor="start" x="532.6" y="-158.4" font-family="Helvetica,sans-Serif" font-weight="bold" font-size="14.00">Character</text>
<text xml:space="preserve" text-anchor="start" x="539.71" y="-148" font-family="Helvetica,sans-Serif" font-style="italic" font-size="10.00" fill="#666666">foaf:Person</text>
<polygon fill="#ffffff" stroke="none" points="493.77,-116 493.77,-138 583.78,-138 583.78,-116 493.77,-116"/>
<text xml:space="preserve" text-anchor="start" x="498.77" y="-125" font-family="Helvetica,sans-Serif" font-weight="bold" font-size="10.00" fill="#333333">schema:name</text>
<polygon fill="#ffffff" stroke="none" points="583.78,-116 583.78,-138 609.28,-138 609.28,-116 583.78,-116"/>
<text xml:space="preserve" text-anchor="start" x="588.78" y="-123.4" font-family="Helvetica,sans-Serif" font-size="9.00" fill="#666666"> </text>
<polygon fill="#ffffff" stroke="none" points="609.28,-116 609.28,-138 632.79,-138 632.79,-116 609.28,-116"/>
<text xml:space="preserve" text-anchor="start" x="614.28" y="-123.4" font-family="Helvetica,sans-Serif" font-size="9.00" fill="#888888">0..*</text>
<polygon fill="#ffffff" stroke="none" points="632.79,-116 632.79,-138 636.79,-138 636.79,-116 632.79,-116"/>
<polygon fill="#f5f5f5" stroke="none" points="493.77,-94 493.77,-116 583.78,-116 583.78,-94 493.77,-94"/>
<text xml:space="preserve" text-anchor="start" x="498.77" y="-103" font-family="Helvetica,sans-Serif" font-weight="bold" font-size="10.00" fill="#333333">rdfs:isDefinedBy</text>
<polygon fill="#f5f5f5" stroke="none" points="583.78,-94 583.78,-116 609.28,-116 609.28,-94 583.78,-94"/>
<text xml:space="preserve" text-anchor="start" x="588.78" y="-101.4" font-family="Helvetica,sans-Serif" font-size="9.00" fill="#666666">URI</text>
<polygon fill="#f5f5f5" stroke="none" points="609.28,-94 609.28,-116 632.79,-116 632.79,-94 609.28,-94"/>
<text xml:space="preserve" text-anchor="start" x="614.28" y="-101.4" font-family="Helvetica,sans-Serif" font-size="9.00" fill="#888888">0..*</text>
<polygon fill="#f5f5f5" stroke="none" points="632.79,-94 632.79,-116 636.79,-116 636.79,-94 632.79,-94"/>
<polygon fill="#666666" stroke="#666666" points="491.77,-138 491.77,-138 638.79,-138 638.79,-138 491.77,-138"/>
<polygon fill="none" stroke="#666666" stroke-width="2" points="492.77,-93 492.77,-179 637.79,-179 637.79,-93 492.77,-93"/>
</g>
</g>
</svg>
