<?xml version="1.0" encoding="UTF-8" standalone="no"?>
<!DOCTYPE svg PUBLIC "-//W3C//DTD SVG 1.1//EN"
 "http://www.w3.org/Graphics/SVG/1.1/DTD/svg11.dtd">
<!-- Generated by graphviz version 14.1.3 (0)
 -->
<!-- Title: YAMA Pages: 1 -->
<svg width="855pt" height="462pt"
 viewBox="0.00 0.00 855.00 462.00" xmlns="http://www.w3.org/2000/svg" xmlns:xlink="http://www.w3.org/1999/xlink">
<g id="graph0" class="graph" transform="scale(1 1) rotate(0) translate(43.2 419.2)">
<title>YAMA</title>
<polygon fill="#ffffff" stroke="none" points="-43.2,43.2 -43.2,-419.2 812.1,-419.2 812.1,43.2 -43.2,43.2"/>
<!-- character -->
<g id="node1" class="node">
<title>character</title>
<polygon fill="#ffffff" stroke="none" points="8,-130 8,-372 226.57,-372 226.57,-130 8,-130"/>
<polygon fill="#ffce9f" stroke="none" points="10,-330 10,-370 224.57,-370 224.57,-330 10,-330"/>
<text xml:space="preserve" text-anchor="start" x="84.6" y="-350.4" font-family="Helvetica,sans-Serif" font-weight="bold" font-size="14.00">Character</text>
<text xml:space="preserve" text-anchor="start" x="91.72" y="-340" font-family="Helvetica,sans-Serif" font-style="italic" font-size="10.00" fill="#666666">foaf:Person</text>
<polygon fill="#ffffff" stroke="none" points="10,-308 10,-330 135.03,-330 135.03,-308 10,-308"/>
<text xml:space="preserve" text-anchor="start" x="15" y="-317" font-family="Helvetica,sans-Serif" font-weight="bold" font-size="10.00" fill="#333333">foaf:name</text>
<polygon fill="#ffffff" stroke="none" points="135.03,-308 135.03,-330 195.56,-330 195.56,-308 135.03,-308"/>
<text xml:space="preserve" text-anchor="start" x="140.03" y="-315.4" font-family="Helvetica,sans-Serif" font-size="9.00" fill="#666666">xsd:string</text>
<polygon fill="#ffffff" stroke="none" points="195.56,-308 195.56,-330 220.57,-330 220.57,-308 195.56,-308"/>
<text xml:space="preserve" text-anchor="start" x="210.57" y="-315.4" font-family="Helvetica,sans-Serif" font-size="9.00" fill="#888888">1</text>
<polygon fill="#ffffff" stroke="none" points="220.57,-308 220.57,-330 224.57,-330 224.57,-308 220.57,-308"/>
<polygon fill="#f5f5f5" stroke="none" points="10,-286 10,-308 135.03,-308 135.03,-286 10,-286"/>
<text xml:space="preserve" text-anchor="start" x="15" y="-295" font-family="Helvetica,sans-Serif" font-weight="bold" font-size="10.00" fill="#333333">foaf:familyName</text>
<polygon fill="#f5f5f5" stroke="none" points="135.03,-286 135.03,-308 195.56,-308 195.56,-286 135.03,-286"/>
<text xml:space="preserve" text-anchor="start" x="140.03" y="-293.4" font-family="Helvetica,sans-Serif" font-size="9.00" fill="#666666">xsd:string</text>
<polygon fill="#f5f5f5" stroke="none" points="195.56,-286 195.56,-308 220.57,-308 220.57,-286 195.56,-286"/>
<text xml:space="preserve" text-anchor="start" x="210.57" y="-293.4" font-family="Helvetica,sans-Serif" font-size="9.00" fill="#888888">1</text>
<polygon fill="#f5f5f5" stroke="none" points="220.57,-286 220.57,-308 224.57,-308 224.57,-286 220.57,-286"/>
<polygon fill="#ffffff" stroke="none" points="10,-264 10,-286 135.03,-286 135.03,-264 10,-264"/>
<text xml:space="preserve" text-anchor="start" x="15" y="-273" font-family="Helvetica,sans-Serif" font-weight="bold" font-size="10.00" fill="#333333">foaf:firstName</text>
<polygon fill="#ffffff" stroke="none" points="135.03,-264 135.03,-286 195.56,-286 195.56,-264 135.03,-264"/>
<text xml:space="preserve" text-anchor="start" x="140.03" y="-271.4" font-family="Helvetica,sans-Serif" font-size="9.00" fill="#666666">xsd:string</text>
<polygon fill="#ffffff" stroke="none" points="195.56,-264 195.56,-286 220.57,-286 220.57,-264 195.56,-264"/>
<text xml:space="preserve" text-anchor="start" x="210.57" y="-271.4" font-family="Helvetica,sans-Serif" font-size="9.00" fill="#888888">1</text>
<polygon fill="#ffffff" stroke="none" points="220.57,-264 220.57,-286 224.57,-286 224.57,-264 220.57,-264"/>
<polygon fill="#f5f5f5" stroke="none" points="10,-242 10,-264 135.03,-264 135.03,-242 10,-242"/>
<text xml:space="preserve" text-anchor="start" x="15" y="-251" font-family="Helvetica,sans-Serif" font-weight="bold" font-size="10.00" fill="#333333">schema:additionalName</text>
<polygon fill="#f5f5f5" stroke="none" points="135.03,-242 135.03,-264 195.56,-264 195.56,-242 135.03,-242"/>
<text xml:space="preserve" text-anchor="start" x="140.03" y="-249.4" font-family="Helvetica,sans-Serif" font-size="9.00" fill="#666666">xsd:string</text>
<polygon fill="#f5f5f5" stroke="none" points="195.56,-242 195.56,-264 220.57,-264 220.57,-242 195.56,-242"/>
<text xml:space="preserve" text-anchor="start" x="200.56" y="-249.4" font-family="Helvetica,sans-Serif" font-size="9.00" fill="#888888">0..1</text>
<polygon fill="#f5f5f5" stroke="none" points="220.57,-242 220.57,-264 224.57,-264 224.57,-242 220.57,-242"/>
<polygon fill="#ffffff" stroke="none" points="10,-220 10,-242 135.03,-242 135.03,-220 10,-220"/>
<text xml:space="preserve" text-anchor="start" x="15" y="-229" font-family="Helvetica,sans-Serif" font-weight="bold" font-size="10.00" fill="#333333">schema:jobTitle</text>
<polygon fill="#ffffff" stroke="none" points="135.03,-220 135.03,-242 195.56,-242 195.56,-220 135.03,-220"/>
<text xml:space="preserve" text-anchor="start" x="140.03" y="-227.4" font-family="Helvetica,sans-Serif" font-size="9.00" fill="#666666">xsd:string</text>
<polygon fill="#ffffff" stroke="none" points="195.56,-220 195.56,-242 220.57,-242 220.57,-220 195.56,-220"/>
<text xml:space="preserve" text-anchor="start" x="200.56" y="-227.4" font-family="Helvetica,sans-Serif" font-size="9.00" fill="#888888">0..1</text>
<polygon fill="#ffffff" stroke="none" points="220.57,-220 220.57,-242 224.57,-242 224.57,-220 220.57,-220"/>
<polygon fill="#f5f5f5" stroke="none" points="10,-198 10,-220 135.03,-220 135.03,-198 10,-198"/>
<text xml:space="preserve" text-anchor="start" x="15" y="-207" font-family="Helvetica,sans-Serif" font-weight="bold" font-size="10.00" fill="#333333">schema:address</text>
<polygon fill="#f5f5f5" stroke="none" points="135.03,-198 135.03,-220 195.56,-220 195.56,-198 135.03,-198"/>
<text xml:space="preserve" text-anchor="start" x="140.03" y="-207.3" font-family="Helvetica,sans-Serif" font-weight="bold" font-size="9.00" fill="#1565c0">→ address</text>
<polygon fill="#f5f5f5" stroke="none" points="195.56,-198 195.56,-220 220.57,-220 220.57,-198 195.56,-198"/>
<text xml:space="preserve" text-anchor="start" x="200.56" y="-205.4" font-family="Helvetica,sans-Serif" font-size="9.00" fill="#888888">0..1</text>
<polygon fill="#f5f5f5" stroke="none" points="220.57,-198 220.57,-220 224.57,-220 224.57,-198 220.57,-198"/>
<polygon fill="#ffffff" stroke="none" points="10,-176 10,-198 135.03,-198 135.03,-176 10,-176"/>
<text xml:space="preserve" text-anchor="start" x="15" y="-185" font-family="Helvetica,sans-Serif" font-weight="bold" font-size="10.00" fill="#333333">foaf:knows</text>
<polygon fill="#ffffff" stroke="none" points="135.03,-176 135.03,-198 195.56,-198 195.56,-176 135.03,-176"/>
<text xml:space="preserve" text-anchor="start" x="140.03" y="-185.3" font-family="Helvetica,sans-Serif" font-weight="bold" font-size="9.00" fill="#6a1b9a">↺ character</text>
<polygon fill="#ffffff" stroke="none" points="195.56,-176 195.56,-198 220.57,-198 220.57,-176 195.56,-176"/>
<text xml:space="preserve" text-anchor="start" x="202.07" y="-183.4" font-family="Helvetica,sans-Serif" font-size="9.00" fill="#888888">0..*</text>
<polygon fill="#ffffff" stroke="none" points="220.57,-176 220.57,-198 224.57,-198 224.57,-176 220.57,-176"/>
<polygon fill="#f5f5f5" stroke="none" points="10,-154 10,-176 135.03,-176 135.03,-154 10,-154"/>
<text xml:space="preserve" text-anchor="start" x="15" y="-163" font-family="Helvetica,sans-Serif" font-weight="bold" font-size="10.00" fill="#333333">schema:byArtist</text>
<polygon fill="#f5f5f5" stroke="none" points="135.03,-154 135.03,-176 195.56,-176 195.56,-154 135.03,-154"/>
<text xml:space="preserve" text-anchor="start" x="140.03" y="-163.3" font-family="Helvetica,sans-Serif" font-weight="bold" font-size="9.00" fill="#1565c0">→ artist</text>
<polygon fill="#f5f5f5" stroke="none" points="195.56,-154 195.56,-176 220.57,-176 220.57,-154 195.56,-154"/>
<text xml:space="preserve" text-anchor="start" x="200.56" y="-161.4" font-family="Helvetica,sans-Serif" font-size="9.00" fill="#888888">0..1</text>
<polygon fill="#f5f5f5" stroke="none" points="220.57,-154 220.57,-176 224.57,-176 224.57,-154 220.57,-154"/>
<polygon fill="#ffffff" stroke="none" points="10,-132 10,-154 135.03,-154 135.03,-132 10,-132"/>
<text xml:space="preserve" text-anchor="start" x="15" y="-141" font-family="Helvetica,sans-Serif" font-weight="bold" font-size="10.00" fill="#333333">rdfs:seeAlso</text>
<polygon fill="#ffffff" stroke="none" points="135.03,-132 135.03,-154 195.56,-154 195.56,-132 135.03,-132"/>
<text xml:space="preserve" text-anchor="start" x="140.03" y="-139.4" font-family="Helvetica,sans-Serif" font-size="9.00" fill="#666666">URI</text>
<polygon fill="#ffffff" stroke="none" points="195.56,-132 195.56,-154 220.57,-154 220.57,-132 195.56,-132"/>
<text xml:space="preserve" text-anchor="start" x="202.07" y="-139.4" font-family="Helvetica,sans-Serif" font-size="9.00" fill="#888888">0..*</text>
<polygon fill="#ffffff" stroke="none" points="220.57,-132 220.57,-154 224.57,-154 224.57,-132 220.57,-132"/>
<polygon fill="#666666" stroke="#666666" points="8,-330 8,-330 226.57,-330 226.57,-330 8,-330"/>
<polygon fill="none" stroke="#666666" stroke-width="2" points="9,-131 9,-371 225.57,-371 225.57,-131 9,-131"/>
</g>
<!-- address -->
<g id="node2" class="node">
<title>address</title>
<polygon fill="#ffffff" stroke="none" points="553.62,-172 553.62,-326 760.9,-326 760.9,-172 553.62,-172"/>
<polygon fill="#b8d4e3" stroke="none" points="555.62,-284 555.62,-324 758.9,-324 758.9,-284 555.62,-284"/>
<text xml:space="preserve" text-anchor="start" x="629.25" y="-304.4" font-family="Helvetica,sans-Serif" font-weight="bold" font-size="14.00">Address</text>
<text xml:space="preserve" text-anchor="start" x="606.13" y="-294" font-family="Helvetica,sans-Serif" font-style="italic" font-size="10.00" fill="#666666">schema:PostalAddress</text>
<polygon fill="#ffffff" stroke="none" points="555.62,-262 555.62,-284 682.88,-284 682.88,-262 555.62,-262"/>
<text xml:space="preserve" text-anchor="start" x="560.62" y="-271" font-family="Helvetica,sans-Serif" font-weight="bold" font-size="10.00" fill="#333333">schema:streetAddress</text>
<polygon fill="#ffffff" stroke="none" points="682.88,-262 682.88,-284 731.39,-284 731.39,-262 682.88,-262"/>
<text xml:space="preserve" text-anchor="start" x="687.88" y="-269.4" font-family="Helvetica,sans-Serif" font-size="9.00" fill="#666666">xsd:string</text>
<polygon fill="#ffffff" stroke="none" points="731.39,-262 731.39,-284 754.9,-284 754.9,-262 731.39,-262"/>
<text xml:space="preserve" text-anchor="start" x="736.39" y="-269.4" font-family="Helvetica,sans-Serif" font-size="9.00" fill="#888888">0..*</text>
<polygon fill="#ffffff" stroke="none" points="754.9,-262 754.9,-284 758.9,-284 758.9,-262 754.9,-262"/>
<polygon fill="#f5f5f5" stroke="none" points="555.62,-240 555.62,-262 682.88,-262 682.88,-240 555.62,-240"/>
<text xml:space="preserve" text-anchor="start" x="560.62" y="-249" font-family="Helvetica,sans-Serif" font-weight="bold" font-size="10.00" fill="#333333">schema:addressLocality</text>
<polygon fill="#f5f5f5" stroke="none" points="682.88,-240 682.88,-262 731.39,-262 731.39,-240 682.88,-240"/>
<text xml:space="preserve" text-anchor="start" x="687.88" y="-247.4" font-family="Helvetica,sans-Serif" font-size="9.00" fill="#666666">xsd:string</text>
<polygon fill="#f5f5f5" stroke="none" points="731.39,-240 731.39,-262 754.9,-262 754.9,-240 731.39,-240"/>
<text xml:space="preserve" text-anchor="start" x="736.39" y="-247.4" font-family="Helvetica,sans-Serif" font-size="9.00" fill="#888888">0..*</text>
<polygon fill="#f5f5f5" stroke="none" points="754.9,-240 754.9,-262 758.9,-262 758.9,-240 754.9,-240"/>
<polygon fill="#ffffff" stroke="none" points="555.62,-218 555.62,-240 682.88,-240 682.88,-218 555.62,-218"/>
<text xml:space="preserve" text-anchor="start" x="560.62" y="-227" font-family="Helvetica,sans-Serif" font-weight="bold" font-size="10.00" fill="#333333">schema:addressRegion</text>
<polygon fill="#ffffff" stroke="none" points="682.88,-218 682.88,-240 731.39,-240 731.39,-218 682.88,-218"/>
<text xml:space="preserve" text-anchor="start" x="687.88" y="-225.4" font-family="Helvetica,sans-Serif" font-size="9.00" fill="#666666">xsd:string</text>
<polygon fill="#ffffff" stroke="none" points="731.39,-218 731.39,-240 754.9,-240 754.9,-218 731.39,-218"/>
<text xml:space="preserve" text-anchor="start" x="736.39" y="-225.4" font-family="Helvetica,sans-Serif" font-size="9.00" fill="#888888">0..*</text>
<polygon fill="#ffffff" stroke="none" points="754.9,-218 754.9,-240 758.9,-240 758.9,-218 754.9,-218"/>
<polygon fill="#f5f5f5" stroke="none" points="555.62,-196 555.62,-218 682.88,-218 682.88,-196 555.62,-196"/>
<text xml:space="preserve" text-anchor="start" x="560.62" y="-205" font-family="Helvetica,sans-Serif" font-weight="bold" font-size="10.00" fill="#333333">schema:addressCountry</text>
<polygon fill="#f5f5f5" stroke="none" points="682.88,-196 682.88,-218 731.39,-218 731.39,-196 682.88,-196"/>
<text xml:space="preserve" text-anchor="start" x="687.88" y="-203.4" font-family="Helvetica,sans-Serif" font-size="9.00" fill="#666666">xsd:string</text>
<polygon fill="#f5f5f5" stroke="none" points="731.39,-196 731.39,-218 754.9,-218 754.9,-196 731.39,-196"/>
<text xml:space="preserve" text-anchor="start" x="736.39" y="-203.4" font-family="Helvetica,sans-Serif" font-size="9.00" fill="#888888">0..*</text>
<polygon fill="#f5f5f5" stroke="none" points="754.9,-196 754.9,-218 758.9,-218 758.9,-196 754.9,-196"/>
<polygon fill="#ffffff" stroke="none" points="555.62,-174 555.62,-196 682.88,-196 682.88,-174 555.62,-174"/>
<text xml:space="preserve" text-anchor="start" x="560.62" y="-183" font-family="Helvetica,sans-Serif" font-weight="bold" font-size="10.00" fill="#333333">schema:postalCode</text>
<polygon fill="#ffffff" stroke="none" points="682.88,-174 682.88,-196 731.39,-196 731.39,-174 682.88,-174"/>
<text xml:space="preserve" text-anchor="start" x="687.88" y="-181.4" font-family="Helvetica,sans-Serif" font-size="9.00" fill="#666666">xsd:string</text>
<polygon fill="#ffffff" stroke="none" points="731.39,-174 731.39,-196 754.9,-196 754.9,-174 731.39,-174"/>
<text xml:space="preserve" text-anchor="start" x="736.39" y="-181.4" font-family="Helvetica,sans-Serif" font-size="9.00" fill="#888888">0..*</text>
<polygon fill="#ffffff" stroke="none" points="754.9,-174 754.9,-196 758.9,-196 758.9,-174 754.9,-174"/>
<polygon fill="#666666" stroke="#666666" points="553.62,-284 553.62,-284 760.9,-284 760.9,-284 553.62,-284"/>
<polygon fill="none" stroke="#666666" stroke-width="2" points="554.62,-173 554.62,-325 759.9,-325 759.9,-173 554.62,-173"/>
</g>
<!-- character&#45;&gt;address -->
<g id="edge1" class="edge">
<title>character:e&#45;&gt;address:w</title>
<path fill="none" stroke="#555555" stroke-width="1.5" d="M224.57,-209C391.74,-322.43 395.66,-325.08 544.64,-305.45"/>
<polygon fill="#555555" stroke="#555555" stroke-width="1.5" points="544.86,-308.6 553.37,-304.3 544.03,-302.35 544.86,-308.6"/>
<polygon fill="#ffffff" stroke="none" points="342.57,-304 342.57,-318.8 437.62,-318.8 437.62,-304 342.57,-304"/>
<text xml:space="preserve" text-anchor="start" x="344.57" y="-307.8" font-family="Helvetica,sans-Serif" font-size="9.00" fill="#333333">schema:address &#160;[0..1]</text>
</g>
<!-- artist -->
<g id="node3" class="node">
<title>artist</title>
<polygon fill="#ffffff" stroke="none" points="572.24,-4 572.24,-92 742.28,-92 742.28,-4 572.24,-4"/>
<polygon fill="#c8e6c9" stroke="none" points="574.24,-50 574.24,-90 740.28,-90 740.28,-50 574.24,-50"/>
<text xml:space="preserve" text-anchor="start" x="638.98" y="-70.4" font-family="Helvetica,sans-Serif" font-weight="bold" font-size="14.00">Artist</text>
<text xml:space="preserve" text-anchor="start" x="631.69" y="-60" font-family="Helvetica,sans-Serif" font-style="italic" font-size="10.00" fill="#666666">foaf:Person</text>
<polygon fill="#ffffff" stroke="none" points="574.24,-28 574.24,-50 664.26,-50 664.26,-28 574.24,-28"/>
<text xml:space="preserve" text-anchor="start" x="579.24" y="-37" font-family="Helvetica,sans-Serif" font-weight="bold" font-size="10.00" fill="#333333">schema:name</text>
<polygon fill="#ffffff" stroke="none" points="664.26,-28 664.26,-50 712.77,-50 712.77,-28 664.26,-28"/>
<text xml:space="preserve" text-anchor="start" x="669.26" y="-35.4" font-family="Helvetica,sans-Serif" font-size="9.00" fill="#666666">xsd:string</text>
<polygon fill="#ffffff" stroke="none" points="712.77,-28 712.77,-50 736.28,-50 736.28,-28 712.77,-28"/>
<text xml:space="preserve" text-anchor="start" x="726.27" y="-35.4" font-family="Helvetica,sans-Serif" font-size="9.00" fill="#888888">1</text>
<polygon fill="#ffffff" stroke="none" points="736.28,-28 736.28,-50 740.28,-50 740.28,-28 736.28,-28"/>
<polygon fill="#f5f5f5" stroke="none" points="574.24,-6 574.24,-28 664.26,-28 664.26,-6 574.24,-6"/>
<text xml:space="preserve" text-anchor="start" x="579.24" y="-15" font-family="Helvetica,sans-Serif" font-weight="bold" font-size="10.00" fill="#333333">rdfs:isDefinedBy</text>
<polygon fill="#f5f5f5" stroke="none" points="664.26,-6 664.26,-28 712.77,-28 712.77,-6 664.26,-6"/>
<text xml:space="preserve" text-anchor="start" x="669.26" y="-13.4" font-family="Helvetica,sans-Serif" font-size="9.00" fill="#666666">URI</text>
<polygon fill="#f5f5f5" stroke="none" points="712.77,-6 712.77,-28 736.28,-28 736.28,-6 712.77,-6"/>
<text xml:space="preserve" text-anchor="start" x="717.77" y="-13.4" font-family="Helvetica,sans-Serif" font-size="9.00" fill="#888888">0..*</text>
<polygon fill="#f5f5f5" stroke="none" points="736.28,-6 736.28,-28 740.28,-28 740.28,-6 736.28,-6"/>
<polygon fill="#666666" stroke="#666666" points="572.24,-50 572.24,-50 742.28,-50 742.28,-50 572.24,-50"/>
<polygon fill="none" stroke="#666666" stroke-width="2" points="573.24,-5 573.24,-91 741.28,-91 741.28,-5 573.24,-5"/>
</g>
<!-- character&#45;&gt;artist -->
<g id="edge2" class="edge">
<title>character:e&#45;&gt;artist:w</title>
<path fill="none" stroke="#555555" stroke-width="1.5" d="M224.57,-165C410,-49.38 414.34,-46.67 563.27,-68.4"/>
<polygon fill="#555555" stroke="#555555" stroke-width="1.5" points="562.64,-71.49 572,-69.67 563.55,-65.25 562.64,-71.49"/>
<polygon fill="#ffffff" stroke="none" points="343.58,-70 343.58,-84.8 436.61,-84.8 436.61,-70 343.58,-70"/>
<text xml:space="preserve" text-anchor="start" x="345.58" y="-73.8" font-family="Helvetica,sans-Serif" font-size="9.00" fill="#333333">schema:byArtist &#160;[0..1]</text>
</g>
</g>
</svg>
