<?xml version="1.0" encoding="UTF-8" standalone="no"?>
<!DOCTYPE svg PUBLIC "-//W3C//DTD SVG 1.1//EN"
 "http://www.w3.org/Graphics/SVG/1.1/DTD/svg11.dtd">
<!-- Generated by graphviz version 14.1.3 (0)
 -->
<!-- Title: YAMA Pages: 1 -->
<svg width="569pt" height="256pt"
 viewBox="0.00 0.00 569.00 256.00" xmlns="http://www.w3.org/2000/svg" xmlns:xlink="http://www.w3.org/1999/xlink">
<g id="graph0" class="graph" transform="scale(1 1) rotate(0) translate(43.2 213.2)">
<title>YAMA</title>
<polygon fill="#ffffff" stroke="none" points="-43.2,43.2 -43.2,-213.2 525.39,-213.2 525.39,43.2 -43.2,43.2"/>
<!-- character -->
<g id="node1" class="node">
<title>character</title>
<polygon fill="#ffce9f" stroke="none" points="8,-56.5 8,-113.5 108.54,-113.5 108.54,-56.5 8,-56.5"/>
<text xml:space="preserve" text-anchor="start" x="27.92" y="-90.8" font-family="Helvetica,sans-Serif" font-weight="bold" font-size="13.00">Character</text>
<text xml:space="preserve" text-anchor="start" x="30.14" y="-79.6" font-family="Helvetica,sans-Serif" font-size="11.00" fill="#666666">foaf:Person</text>
<text xml:space="preserve" text-anchor="start" x="20" y="-70.4" font-family="Helvetica,sans-Serif" font-style="italic" font-size="9.00" fill="#6a1b9a">↺ foaf:knows &#160;[0..*]</text>
<polygon fill="none" stroke="#666666" stroke-width="2" points="9,-57.5 9,-112.5 107.54,-112.5 107.54,-57.5 9,-57.5"/>
</g>
<!-- address -->
<g id="node2" class="node">
<title>address</title>
<polygon fill="#b8d4e3" stroke="none" points="337.7,-118 337.7,-166 474.19,-166 474.19,-118 337.7,-118"/>
<text xml:space="preserve" text-anchor="start" x="379.94" y="-143.3" font-family="Helvetica,sans-Serif" font-weight="bold" font-size="13.00">Address</text>
<text xml:space="preserve" text-anchor="start" x="349.7" y="-132.1" font-family="Helvetica,sans-Serif" font-size="11.00" fill="#666666">schema:PostalAddress</text>
<polygon fill="none" stroke="#666666" stroke-width="2" points="338.7,-119 338.7,-165 473.19,-165 473.19,-119 338.7,-119"/>
</g>
<!-- character&#45;&gt;address -->
<g id="edge1" class="edge">
<title>character&#45;&gt;address</title>
<path fill="none" stroke="#555555" stroke-width="1.5" d="M110.43,-117.36C193.12,-167.35 223.81,-174.72 318.95,-158.57"/>
<polygon fill="#555555" stroke="#555555" stroke-width="1.5" points="319.36,-161.69 327.69,-157.04 318.28,-155.49 319.36,-161.69"/>
<polygon fill="#ffffff" stroke="none" points="170.54,-142 170.54,-158 275.7,-158 275.7,-142 170.54,-142"/>
<text xml:space="preserve" text-anchor="start" x="172.54" y="-146" font-family="Helvetica,sans-Serif" font-size="10.00" fill="#333333">schema:address &#160;[0..1]</text>
</g>
<!-- artist -->
<g id="node3" class="node">
<title>artist</title>
<polygon fill="#c8e6c9" stroke="none" points="365.82,-4 365.82,-52 446.07,-52 446.07,-4 365.82,-4"/>
<text xml:space="preserve" text-anchor="start" x="388.97" y="-29.3" font-family="Helvetica,sans-Serif" font-weight="bold" font-size="13.00">Artist</text>
<text xml:space="preserve" text-anchor="start" x="377.82" y="-18.1" font-family="Helvetica,sans-Serif" font-size="11.00" fill="#666666">foaf:Person</text>
<polygon fill="none" stroke="#666666" stroke-width="2" points="366.82,-5 366.82,-51 445.07,-51 445.07,-5 366.82,-5"/>
</g>
<!-- character&#45;&gt;artist -->
<g id="edge2" class="edge">
<title>character&#45;&gt;artist</title>
<path fill="none" stroke="#555555" stroke-width="1.5" d="M110.43,-52.64C200.79,1.98 229.05,5.72 347.16,-16.51"/>
<polygon fill="#555555" stroke="#555555" stroke-width="1.5" points="346.44,-19.58 355.87,-18.17 347.62,-13.39 346.44,-19.58"/>
<polygon fill="#ffffff" stroke="none" points="171.65,-28 171.65,-44 274.58,-44 274.58,-28 171.65,-28"/>
<text xml:space="preserve" text-anchor="start" x="173.65" y="-32" font-family="Helvetica,sans-Serif" font-size="10.00" fill="#333333">schema:byArtist &#160;[0..1]</text>
</g>
</g>
</svg>
